<svg xmlns="http://www.w3.org/2000/svg" width="1000" height="470" viewBox="0 0 1000 470">
  <rect width="1000" height="470" fill="#fff"/>
  <text x="500" y="42" text-anchor="middle" font-family="Arial, sans-serif" font-size="27" font-weight="700" fill="#222">从稀疏结果到密集可学习信号</text>
  <g font-family="Arial, sans-serif" font-size="22" text-anchor="middle">
    <g fill="#edf5ff" stroke="#2f6fba" stroke-width="2"><rect x="55" y="100" width="170" height="70" rx="12"/><rect x="280" y="100" width="170" height="70" rx="12"/><rect x="505" y="100" width="170" height="70" rx="12"/><rect x="730" y="100" width="215" height="70" rx="12"/></g>
    <text x="140" y="143" fill="#222">格式正确</text><text x="365" y="143" fill="#222">代码可执行</text><text x="590" y="143" fill="#222">solver optimal</text><text x="837" y="143" fill="#222">objective match</text>
  </g>
  <g stroke="#777" stroke-width="3" fill="none"><path d="M225 135h55m170 0h55m170 0h55"/></g><g fill="#777"><path d="M280 135l-12-8v16z"/><path d="M505 135l-12-8v16z"/><path d="M730 135l-12-8v16z"/></g>
  <g font-family="Arial, sans-serif" font-size="20" fill="#333"><text x="75" y="245">solve_format</text><text x="300" y="245">solver</text><text x="525" y="245">objective</text></g>
  <g stroke="#2f6fba" stroke-width="12" stroke-linecap="round"><path d="M80 290h220"/><path d="M325 290h220"/><path d="M570 290h300"/></g>
  <g font-family="Arial, sans-serif" font-size="18" fill="#555"><text x="80" y="340">先让 Agent 学会合法行动</text><text x="325" y="340">再让工具真正跑起来</text><text x="570" y="340">最后优化数学结果</text></g>
  <text x="500" y="420" text-anchor="middle" font-family="Arial, sans-serif" font-size="19" fill="#555">奖励设计的关键：每一级都必须对应真实任务进展，避免只学会“格式漂亮”</text>
</svg>
