<svg xmlns="http://www.w3.org/2000/svg" width="1000" height="520" viewBox="0 0 1000 520">
  <rect width="1000" height="520" fill="#f7f8fa"/>
  <text x="500" y="42" text-anchor="middle" font-family="Arial, sans-serif" font-size="27" font-weight="700" fill="#222">Qwen2.5-7B：严格 held-out 集上的 pass@1</text>
  <line x1="160" y1="420" x2="900" y2="420" stroke="#333" stroke-width="2"/><line x1="160" y1="90" x2="160" y2="420" stroke="#333" stroke-width="2"/>
  <g font-family="Arial, sans-serif" font-size="17" fill="#555" text-anchor="end"><text x="150" y="425">0%</text><text x="150" y="342">25%</text><text x="150" y="260">50%</text><text x="150" y="177">75%</text><text x="150" y="95">100%</text></g>
  <g stroke="#ddd" stroke-width="1"><path d="M160 337h740M160 255h740M160 172h740M160 90h740"/></g>
  <g fill="#5b8ff9"><rect x="250" y="208" width="125" height="212"/><rect x="540" y="176" width="125" height="244"/></g>
  <g font-family="Arial, sans-serif" font-size="24" font-weight="700" fill="#222" text-anchor="middle"><text x="312" y="195">64.29%</text><text x="602" y="163">74.03%</text></g>
  <g font-family="Arial, sans-serif" font-size="20" fill="#333" text-anchor="middle"><text x="312" y="460">Base model</text><text x="602" y="460">RLVR LoRA</text></g>
  <rect x="760" y="175" width="150" height="70" rx="10" fill="#fff2d9" stroke="#c88719"/><text x="835" y="204" text-anchor="middle" font-family="Arial, sans-serif" font-size="20" font-weight="700" fill="#8a5a00">+9.74 pp</text><text x="835" y="229" text-anchor="middle" font-family="Arial, sans-serif" font-size="15" fill="#8a5a00">p = 0.0275</text>
  <text x="500" y="500" text-anchor="middle" font-family="Arial, sans-serif" font-size="17" fill="#555">154 条未参与训练的样本；checkpoint 仅由 validation 选择</text>
</svg>
